<svg width="112" height="45" viewBox="0 0 112 45" fill="none" xmlns="http://www.w3.org/2000/svg">
<path d="M5.39906 2.57701H0V0H13.9412V2.57701H8.54218V16.6747H5.39906V2.57701Z" fill="#F9F9F9"/>
<path d="M22.5248 0H25.6679V16.6747H22.5248V0Z" fill="#F9F9F9"/>
<path d="M39.5818 2.57701H34.1828V0H48.124V2.57701H42.725V16.6747H39.5818V2.57701Z" fill="#F9F9F9"/>
<path d="M67.8388 16.7758H64.645L59.0685 3.13283L54.4552 14.3757H58.6883V16.7758H50.3742L57.5476 0.0252644H60.6907L67.8388 16.7758Z" fill="#F9F9F9"/>
<path d="M90.303 16.7H87.4894L78.3642 4.74978V16.7H75.2718V0H78.3389L87.1852 11.5965V0H90.303V16.7Z" fill="#F9F9F9"/>
<path d="M0.576055 29.9901V28.3195H10.563V29.9901H6.53673V41.1816H4.59604V29.9901H0.576055Z" fill="url(#paint0_linear_677_10498)"/>
<path d="M15.3864 41.3763C14.4328 41.3763 13.6116 41.1732 12.9227 40.7671C12.238 40.3568 11.7087 39.7811 11.3349 39.04C10.9652 38.2947 10.7804 37.4218 10.7804 36.4211C10.7804 35.433 10.9652 34.5621 11.3349 33.8085C11.7087 33.0549 12.2296 32.4666 12.8975 32.0437C13.5696 31.6209 14.3551 31.4094 15.2541 31.4094C15.8001 31.4094 16.3294 31.4994 16.8419 31.6795C17.3544 31.8595 17.8143 32.1421 18.2218 32.5273C18.6292 32.9125 18.9506 33.4128 19.1858 34.0283C19.4211 34.6396 19.5387 35.3828 19.5387 36.2578V36.9235H11.8453V35.5167H17.6925C17.6925 35.0227 17.5917 34.5852 17.3901 34.2042C17.1884 33.819 16.9049 33.5154 16.5394 33.2935C16.1782 33.0716 15.7539 32.9607 15.2667 32.9607C14.7374 32.9607 14.2753 33.0905 13.8805 33.35C13.4898 33.6054 13.1874 33.9404 12.9731 34.3549C12.7631 34.7652 12.6581 35.2111 12.6581 35.6926V36.7916C12.6581 37.4364 12.7715 37.9849 12.9983 38.4371C13.2294 38.8893 13.5507 39.2347 13.9624 39.4733C14.374 39.7078 14.855 39.825 15.4053 39.825C15.7623 39.825 16.0879 39.7748 16.3819 39.6743C16.676 39.5696 16.9301 39.4147 17.1443 39.2096C17.3586 39.0044 17.5224 38.7511 17.6358 38.4496L19.419 38.7699C19.2761 39.2933 19.0199 39.7518 18.6503 40.1453C18.2848 40.5347 17.8248 40.8383 17.2703 41.056C16.7201 41.2695 16.0921 41.3763 15.3864 41.3763Z" fill="url(#paint1_linear_677_10498)"/>
<path d="M25.7057 41.3763C24.769 41.3763 23.9625 41.1648 23.2862 40.742C22.6141 40.3149 22.0974 39.7266 21.7361 38.9772C21.3749 38.2277 21.1943 37.3694 21.1943 36.4023C21.1943 35.4225 21.3791 34.5579 21.7487 33.8085C22.1184 33.0549 22.6393 32.4666 23.3114 32.0437C23.9835 31.6209 24.7753 31.4094 25.6868 31.4094C26.4219 31.4094 27.0772 31.5455 27.6527 31.8176C28.2282 32.0856 28.6923 32.4624 29.0452 32.9481C29.4023 33.4338 29.6144 34.0011 29.6816 34.6501H27.848C27.7472 34.1979 27.5162 33.8085 27.1549 33.4819C26.7979 33.1553 26.319 32.9921 25.7183 32.9921C25.1932 32.9921 24.7333 33.1302 24.3384 33.4066C23.9478 33.6787 23.6432 34.0681 23.4248 34.5747C23.2063 35.0771 23.0971 35.6717 23.0971 36.3583C23.0971 37.0617 23.2042 37.6688 23.4185 38.1796C23.6327 38.6904 23.9352 39.086 24.3258 39.3666C24.7207 39.6471 25.1848 39.7873 25.7183 39.7873C26.0754 39.7873 26.3988 39.7225 26.6887 39.5927C26.9827 39.4587 27.2284 39.2682 27.4259 39.0212C27.6275 38.7741 27.7682 38.4769 27.848 38.1293H29.6816C29.6144 38.7532 29.4107 39.31 29.0704 39.7999C28.7302 40.2898 28.2744 40.675 27.7031 40.9555C27.136 41.236 26.4702 41.3763 25.7057 41.3763Z" fill="url(#paint2_linear_677_10498)"/>
<path d="M33.5803 35.4539V41.1816H31.6963V28.3195H33.5551V33.1051H33.6748C33.9016 32.5859 34.2482 32.1735 34.7145 31.8679C35.1807 31.5622 35.7898 31.4094 36.5417 31.4094C37.2054 31.4094 37.7851 31.5455 38.2808 31.8176C38.7807 32.0898 39.1671 32.4959 39.4401 33.036C39.7174 33.5719 39.856 34.2418 39.856 35.0457V41.1816H37.972V35.2718C37.972 34.5642 37.7893 34.0158 37.4239 33.6264C37.0584 33.2328 36.5501 33.036 35.899 33.036C35.4538 33.036 35.0547 33.1302 34.7019 33.3186C34.3532 33.507 34.0781 33.7834 33.8764 34.1476C33.679 34.5077 33.5803 34.9431 33.5803 35.4539Z" fill="url(#paint3_linear_677_10498)"/>
<path d="M44.2541 35.4539V41.1816H42.3701V31.535H44.1784V33.1051H44.2982C44.5208 32.5943 44.8694 32.184 45.3441 31.8742C45.823 31.5643 46.4258 31.4094 47.1525 31.4094C47.812 31.4094 48.3896 31.5476 48.8852 31.8239C49.3809 32.0961 49.7653 32.5022 50.0383 33.0423C50.3113 33.5824 50.4479 34.2502 50.4479 35.0457V41.1816H48.5639V35.2718C48.5639 34.5726 48.3812 34.0262 48.0157 33.6326C47.6502 33.2349 47.1483 33.036 46.5098 33.036C46.0729 33.036 45.6844 33.1302 45.3441 33.3186C45.0081 33.507 44.7413 33.7834 44.5439 34.1476C44.3507 34.5077 44.2541 34.9431 44.2541 35.4539Z" fill="url(#paint4_linear_677_10498)"/>
<path d="M57.0512 41.3763C56.1439 41.3763 55.3521 41.169 54.6758 40.7545C53.9995 40.34 53.4744 39.7601 53.1005 39.0149C52.7267 38.2696 52.5398 37.3987 52.5398 36.4023C52.5398 35.4016 52.7267 34.5265 53.1005 33.7771C53.4744 33.0276 53.9995 32.4457 54.6758 32.0312C55.3521 31.6167 56.1439 31.4094 57.0512 31.4094C57.9586 31.4094 58.7504 31.6167 59.4267 32.0312C60.103 32.4457 60.6281 33.0276 61.0019 33.7771C61.3758 34.5265 61.5627 35.4016 61.5627 36.4023C61.5627 37.3987 61.3758 38.2696 61.0019 39.0149C60.6281 39.7601 60.103 40.34 59.4267 40.7545C58.7504 41.169 57.9586 41.3763 57.0512 41.3763ZM57.0575 39.7999C57.6456 39.7999 58.1329 39.645 58.5193 39.3352C58.9058 39.0253 59.1914 38.6129 59.3763 38.0979C59.5653 37.583 59.6598 37.0156 59.6598 36.396C59.6598 35.7805 59.5653 35.2153 59.3763 34.7003C59.1914 34.1811 58.9058 33.7645 58.5193 33.4505C58.1329 33.1365 57.6456 32.9795 57.0575 32.9795C56.4652 32.9795 55.9738 33.1365 55.5831 33.4505C55.1967 33.7645 54.9089 34.1811 54.7199 34.7003C54.5351 35.2153 54.4426 35.7805 54.4426 36.396C54.4426 37.0156 54.5351 37.583 54.7199 38.0979C54.9089 38.6129 55.1967 39.0253 55.5831 39.3352C55.9738 39.645 56.4652 39.7999 57.0575 39.7999Z" fill="url(#paint5_linear_677_10498)"/>
<path d="M65.5496 28.3195V41.1816H63.6656V28.3195H65.5496Z" fill="url(#paint6_linear_677_10498)"/>
<path d="M72.1608 41.3763C71.2535 41.3763 70.4617 41.169 69.7854 40.7545C69.1091 40.34 68.584 39.7601 68.2102 39.0149C67.8363 38.2696 67.6494 37.3987 67.6494 36.4023C67.6494 35.4016 67.8363 34.5265 68.2102 33.7771C68.584 33.0276 69.1091 32.4457 69.7854 32.0312C70.4617 31.6167 71.2535 31.4094 72.1608 31.4094C73.0682 31.4094 73.86 31.6167 74.5363 32.0312C75.2126 32.4457 75.7377 33.0276 76.1115 33.7771C76.4854 34.5265 76.6723 35.4016 76.6723 36.4023C76.6723 37.3987 76.4854 38.2696 76.1115 39.0149C75.7377 39.7601 75.2126 40.34 74.5363 40.7545C73.86 41.169 73.0682 41.3763 72.1608 41.3763ZM72.1671 39.7999C72.7552 39.7999 73.2425 39.645 73.629 39.3352C74.0154 39.0253 74.3011 38.6129 74.4859 38.0979C74.6749 37.583 74.7694 37.0156 74.7694 36.396C74.7694 35.7805 74.6749 35.2153 74.4859 34.7003C74.3011 34.1811 74.0154 33.7645 73.629 33.4505C73.2425 33.1365 72.7552 32.9795 72.1671 32.9795C71.5749 32.9795 71.0834 33.1365 70.6927 33.4505C70.3063 33.7645 70.0185 34.1811 69.8295 34.7003C69.6447 35.2153 69.5523 35.7805 69.5523 36.396C69.5523 37.0156 69.6447 37.583 69.8295 38.0979C70.0185 38.6129 70.3063 39.0253 70.6927 39.3352C71.0834 39.645 71.5749 39.7999 72.1671 39.7999Z" fill="url(#paint7_linear_677_10498)"/>
<path d="M82.833 45C82.0643 45 81.4027 44.8995 80.8482 44.6985C80.298 44.4976 79.8485 44.2317 79.4998 43.901C79.1512 43.5702 78.8907 43.208 78.7185 42.8145L80.3379 42.1487C80.4513 42.333 80.6025 42.5277 80.7915 42.7328C80.9848 42.9422 81.2452 43.1201 81.5728 43.2666C81.9047 43.4132 82.3311 43.4865 82.8519 43.4865C83.566 43.4865 84.1562 43.3127 84.6225 42.9652C85.0888 42.6219 85.3219 42.0734 85.3219 41.3197V39.4231H85.2022C85.0888 39.6282 84.9249 39.8564 84.7107 40.1076C84.5007 40.3589 84.2108 40.5766 83.8412 40.7608C83.4715 40.945 82.9905 41.0371 82.3983 41.0371C81.6338 41.0371 80.9449 40.8592 80.3316 40.5033C79.7225 40.1432 79.2394 39.6136 78.8823 38.9144C78.5295 38.211 78.3531 37.3464 78.3531 36.3206C78.3531 35.2948 78.5274 34.4156 78.876 33.6829C79.2289 32.9502 79.712 32.3891 80.3253 31.9998C80.9385 31.6062 81.6338 31.4094 82.4109 31.4094C83.0116 31.4094 83.4967 31.5099 83.8664 31.7109C84.236 31.9077 84.5238 32.1379 84.7296 32.4017C84.9396 32.6655 85.1014 32.8979 85.2148 33.0988H85.3534V31.535H87.1996V41.3951C87.1996 42.2241 87.0063 42.9045 86.6199 43.4362C86.2334 43.9679 85.7104 44.3615 85.0509 44.6169C84.3957 44.8723 83.6563 45 82.833 45ZM82.8141 39.4796C83.356 39.4796 83.8139 39.354 84.1877 39.1028C84.5658 38.8474 84.8514 38.4831 85.0446 38.01C85.2421 37.5327 85.3408 36.9612 85.3408 36.2955C85.3408 35.6465 85.2442 35.075 85.0509 34.581C84.8577 34.0869 84.5742 33.7017 84.2003 33.4254C83.8265 33.1449 83.3644 33.0046 82.8141 33.0046C82.247 33.0046 81.7745 33.1512 81.3964 33.4442C81.0184 33.7331 80.7327 34.1267 80.5395 34.6249C80.3505 35.1232 80.2559 35.68 80.2559 36.2955C80.2559 36.9277 80.3526 37.4825 80.5458 37.9598C80.739 38.4371 81.0247 38.8097 81.4027 39.0777C81.785 39.3456 82.2554 39.4796 82.8141 39.4796Z" fill="url(#paint8_linear_677_10498)"/>
<path d="M89.7262 41.1816V31.535H91.6102V41.1816H89.7262ZM90.6777 30.0466C90.35 30.0466 90.0686 29.9377 89.8334 29.72C89.6023 29.4981 89.4868 29.2343 89.4868 28.9287C89.4868 28.6189 89.6023 28.3551 89.8334 28.1374C90.0686 27.9155 90.35 27.8045 90.6777 27.8045C91.0053 27.8045 91.2847 27.9155 91.5157 28.1374C91.7509 28.3551 91.8686 28.6189 91.8686 28.9287C91.8686 29.2343 91.7509 29.4981 91.5157 29.72C91.2847 29.9377 91.0053 30.0466 90.6777 30.0466Z" fill="url(#paint9_linear_677_10498)"/>
<path d="M98.316 41.3763C97.3624 41.3763 96.5412 41.1732 95.8523 40.7671C95.1676 40.3568 94.6383 39.7811 94.2645 39.04C93.8948 38.2947 93.71 37.4218 93.71 36.4211C93.71 35.433 93.8948 34.5621 94.2645 33.8085C94.6383 33.0549 95.1592 32.4666 95.8271 32.0437C96.4992 31.6209 97.2847 31.4094 98.1836 31.4094C98.7297 31.4094 99.259 31.4994 99.7715 31.6795C100.284 31.8595 100.744 32.1421 101.151 32.5273C101.559 32.9125 101.88 33.4128 102.115 34.0283C102.351 34.6396 102.468 35.3828 102.468 36.2578V36.9235H94.7748V35.5167H100.622C100.622 35.0227 100.521 34.5852 100.32 34.2042C100.118 33.819 99.8345 33.5154 99.469 33.2935C99.1078 33.0716 98.6835 32.9607 98.1963 32.9607C97.667 32.9607 97.2049 33.0905 96.81 33.35C96.4194 33.6054 96.117 33.9404 95.9027 34.3549C95.6927 34.7652 95.5877 35.2111 95.5877 35.6926V36.7916C95.5877 37.4364 95.7011 37.9849 95.9279 38.4371C96.159 38.8893 96.4803 39.2347 96.892 39.4733C97.3036 39.7078 97.7846 39.825 98.3349 39.825C98.6919 39.825 99.0175 39.7748 99.3115 39.6743C99.6056 39.5696 99.8597 39.4147 100.074 39.2096C100.288 39.0044 100.452 38.7511 100.565 38.4496L102.349 38.7699C102.206 39.2933 101.95 39.7518 101.58 40.1453C101.214 40.5347 100.754 40.8383 100.2 41.056C99.6497 41.2695 99.0217 41.3763 98.316 41.3763Z" fill="url(#paint10_linear_677_10498)"/>
<path d="M111.811 33.8901L110.103 34.1916C110.032 33.9739 109.919 33.7666 109.763 33.5698C109.612 33.3731 109.406 33.2119 109.146 33.0863C108.885 32.9607 108.56 32.8979 108.169 32.8979C107.636 32.8979 107.19 33.0172 106.833 33.2558C106.476 33.4903 106.298 33.7938 106.298 34.1665C106.298 34.4889 106.417 34.7485 106.657 34.9452C106.896 35.142 107.283 35.3032 107.816 35.4288L109.354 35.7805C110.244 35.9857 110.908 36.3018 111.345 36.7288C111.782 37.1559 112 37.7107 112 38.3931C112 38.9709 111.832 39.4859 111.496 39.9381C111.164 40.3861 110.7 40.7378 110.103 40.9932C109.511 41.2486 108.824 41.3763 108.043 41.3763C106.959 41.3763 106.075 41.146 105.39 40.6854C104.706 40.2207 104.286 39.5613 104.13 38.7071L105.951 38.4308C106.065 38.9039 106.298 39.2619 106.651 39.5047C107.003 39.7434 107.463 39.8627 108.03 39.8627C108.648 39.8627 109.141 39.735 109.511 39.4796C109.881 39.22 110.066 38.9039 110.066 38.5313C110.066 38.2298 109.952 37.9765 109.725 37.7714C109.503 37.5662 109.16 37.4113 108.698 37.3066L107.06 36.9487C106.157 36.7435 105.489 36.4169 105.056 35.9689C104.628 35.5209 104.414 34.9536 104.414 34.267C104.414 33.6975 104.573 33.1993 104.893 32.7722C105.212 32.3452 105.653 32.0123 106.216 31.7737C106.779 31.5308 107.423 31.4094 108.15 31.4094C109.196 31.4094 110.019 31.6355 110.62 32.0877C111.221 32.5357 111.618 33.1365 111.811 33.8901Z" fill="url(#paint11_linear_677_10498)"/>
<defs>
<linearGradient id="paint0_linear_677_10498" x1="112" y1="22.5" x2="0" y2="22.5" gradientUnits="userSpaceOnUse">
<stop stop-color="#9B51E0"/>
<stop offset="0.9999" stop-color="#F78DA7"/>
</linearGradient>
<linearGradient id="paint1_linear_677_10498" x1="112" y1="22.5" x2="0" y2="22.5" gradientUnits="userSpaceOnUse">
<stop stop-color="#9B51E0"/>
<stop offset="0.9999" stop-color="#F78DA7"/>
</linearGradient>
<linearGradient id="paint2_linear_677_10498" x1="112" y1="22.5" x2="0" y2="22.5" gradientUnits="userSpaceOnUse">
<stop stop-color="#9B51E0"/>
<stop offset="0.9999" stop-color="#F78DA7"/>
</linearGradient>
<linearGradient id="paint3_linear_677_10498" x1="112" y1="22.5" x2="0" y2="22.5" gradientUnits="userSpaceOnUse">
<stop stop-color="#9B51E0"/>
<stop offset="0.9999" stop-color="#F78DA7"/>
</linearGradient>
<linearGradient id="paint4_linear_677_10498" x1="112" y1="22.5" x2="0" y2="22.5" gradientUnits="userSpaceOnUse">
<stop stop-color="#9B51E0"/>
<stop offset="0.9999" stop-color="#F78DA7"/>
</linearGradient>
<linearGradient id="paint5_linear_677_10498" x1="112" y1="22.5" x2="0" y2="22.5" gradientUnits="userSpaceOnUse">
<stop stop-color="#9B51E0"/>
<stop offset="0.9999" stop-color="#F78DA7"/>
</linearGradient>
<linearGradient id="paint6_linear_677_10498" x1="112" y1="22.5" x2="0" y2="22.5" gradientUnits="userSpaceOnUse">
<stop stop-color="#9B51E0"/>
<stop offset="0.9999" stop-color="#F78DA7"/>
</linearGradient>
<linearGradient id="paint7_linear_677_10498" x1="112" y1="22.5" x2="0" y2="22.5" gradientUnits="userSpaceOnUse">
<stop stop-color="#9B51E0"/>
<stop offset="0.9999" stop-color="#F78DA7"/>
</linearGradient>
<linearGradient id="paint8_linear_677_10498" x1="112" y1="22.5" x2="0" y2="22.5" gradientUnits="userSpaceOnUse">
<stop stop-color="#9B51E0"/>
<stop offset="0.9999" stop-color="#F78DA7"/>
</linearGradient>
<linearGradient id="paint9_linear_677_10498" x1="112" y1="22.5" x2="0" y2="22.5" gradientUnits="userSpaceOnUse">
<stop stop-color="#9B51E0"/>
<stop offset="0.9999" stop-color="#F78DA7"/>
</linearGradient>
<linearGradient id="paint10_linear_677_10498" x1="112" y1="22.5" x2="0" y2="22.5" gradientUnits="userSpaceOnUse">
<stop stop-color="#9B51E0"/>
<stop offset="0.9999" stop-color="#F78DA7"/>
</linearGradient>
<linearGradient id="paint11_linear_677_10498" x1="112" y1="22.5" x2="0" y2="22.5" gradientUnits="userSpaceOnUse">
<stop stop-color="#9B51E0"/>
<stop offset="0.9999" stop-color="#F78DA7"/>
</linearGradient>
</defs>
</svg>
